<svg width="41" height="37" viewBox="0 0 41 37" fill="none" xmlns="http://www.w3.org/2000/svg">
<g opacity="0.2">
<path fill-rule="evenodd" clip-rule="evenodd" d="M17.9358 32.8444C17.4691 33.2339 16.9302 33.5276 16.3499 33.7086C15.7696 33.8897 15.1593 33.9546 14.5539 33.8996C13.9485 33.8446 13.3599 33.6709 12.8217 33.3882C12.2835 33.1056 11.8063 32.7196 11.4174 32.2524L1.14041 19.9187C0.389911 18.9729 0.0390538 17.771 0.162793 16.5699C0.286532 15.3688 0.875055 14.2638 1.80263 13.4908C2.73021 12.7178 3.92329 12.3382 5.127 12.4331C6.3307 12.528 7.44957 13.0898 8.2446 13.9986L18.5247 26.3322C19.3094 27.2744 19.6879 28.4897 19.5769 29.7109C19.4658 30.932 18.8775 32.0591 17.9358 32.8444Z" fill="#7C7C7C"/>
<path fill-rule="evenodd" clip-rule="evenodd" d="M17.9361 1.07292C18.8779 1.85818 19.4693 2.98528 19.5803 4.20644C19.6913 5.4276 19.3129 6.64287 18.5281 7.58509L8.24803 19.9187C7.8647 20.4019 7.38862 20.8034 6.8478 21.0999C6.30698 21.3963 5.71234 21.5815 5.09886 21.6447C4.48539 21.7079 3.86547 21.6478 3.27558 21.4679C2.68568 21.288 2.13773 20.9919 1.66395 20.5971C1.19017 20.2022 0.800133 19.7167 0.51679 19.1689C0.233447 18.6211 0.0625176 18.0222 0.0140571 17.4074C-0.0344035 16.7926 0.0405841 16.1743 0.234608 15.5889C0.428632 15.0035 0.737774 14.4628 1.14385 13.9986L11.4209 1.66494C11.8097 1.19817 12.2867 0.812584 12.8246 0.530209C13.3626 0.247835 13.9508 0.0742016 14.5559 0.0192261C15.1609 -0.0357513 15.7708 0.0290089 16.3508 0.209805C16.9308 0.3906 17.4695 0.683886 17.9361 1.07292Z" fill="#7C7C7C"/>
<path fill-rule="evenodd" clip-rule="evenodd" d="M6.23755 16.9586C6.23755 15.732 6.72484 14.5555 7.59222 13.6882C8.45959 12.8208 9.63601 12.3335 10.8627 12.3335L35.53 12.3335C36.7566 12.3335 37.9331 12.8208 38.8004 13.6882C39.6678 14.5555 40.1551 15.732 40.1551 16.9586C40.1551 18.1853 39.6678 19.3617 38.8004 20.2291C37.9331 21.0965 36.7566 21.5837 35.53 21.5837L10.8627 21.5837C9.63601 21.5837 8.45959 21.0965 7.59222 20.2291C6.72484 19.3617 6.23755 18.1853 6.23755 16.9586Z" fill="#7C7C7C"/>
</g>
<path fill-rule="evenodd" clip-rule="evenodd" d="M14.4185 36.6428C14.1044 36.9044 13.6993 37.0305 13.2922 36.9935C12.8852 36.9565 12.5095 36.7594 12.2477 36.4455L1.97072 24.1118C1.83536 23.9571 1.73231 23.7769 1.66764 23.5817C1.60297 23.3866 1.57797 23.1805 1.59412 22.9756C1.61028 22.7706 1.66725 22.571 1.7617 22.3884C1.85615 22.2058 1.98616 22.0439 2.14409 21.9123C2.30201 21.7807 2.48467 21.682 2.6813 21.6221C2.87793 21.5621 3.08457 21.5421 3.28906 21.5631C3.49355 21.5842 3.69176 21.6459 3.87204 21.7447C4.05231 21.8435 4.211 21.9774 4.33878 22.1384L14.6158 34.4721C14.8774 34.7862 15.0035 35.1913 14.9665 35.5983C14.9295 36.0054 14.7324 36.3811 14.4185 36.6428Z" fill="#4E94D0"/>
<path fill-rule="evenodd" clip-rule="evenodd" d="M14.4185 9.60737C14.7324 9.86912 14.9295 10.2448 14.9665 10.6519C15.0035 11.0589 14.8774 11.464 14.6158 11.7781L4.33878 24.1117C4.211 24.2728 4.05231 24.4066 3.87204 24.5055C3.69176 24.6043 3.49355 24.666 3.28906 24.6871C3.08457 24.7081 2.87793 24.6881 2.6813 24.6281C2.48467 24.5682 2.30201 24.4695 2.14409 24.3379C1.98616 24.2063 1.85615 24.0444 1.7617 23.8618C1.66725 23.6792 1.61028 23.4796 1.59412 23.2746C1.57797 23.0697 1.60297 22.8636 1.66764 22.6685C1.73231 22.4733 1.83536 22.2931 1.97072 22.1384L12.2477 9.80471C12.5095 9.49079 12.8852 9.29365 13.2922 9.25665C13.6993 9.21964 14.1044 9.34579 14.4185 9.60737Z" fill="#4E94D0"/>
<path fill-rule="evenodd" clip-rule="evenodd" d="M3.15405 23.1253C3.15405 22.7164 3.31648 22.3243 3.60561 22.0351C3.89473 21.746 4.28687 21.5836 4.69576 21.5836L33.9882 21.5836C34.3971 21.5836 34.7892 21.746 35.0784 22.0351C35.3675 22.3243 35.5299 22.7164 35.5299 23.1253C35.5299 23.5342 35.3675 23.9263 35.0784 24.2154C34.7892 24.5046 34.3971 24.667 33.9882 24.667L4.69576 24.667C4.28687 24.667 3.89473 24.5046 3.60561 24.2154C3.31648 23.9263 3.15405 23.5342 3.15405 23.1253Z" fill="#4E94D0"/>
</svg>
