<svg width="41" height="37" viewBox="0 0 41 37" fill="none" xmlns="http://www.w3.org/2000/svg">
<g opacity="0.2">
<path fill-rule="evenodd" clip-rule="evenodd" d="M22.2193 4.15549C22.686 3.76598 23.2249 3.4723 23.8052 3.29123C24.3855 3.11017 24.9958 3.04527 25.6012 3.10026C26.2065 3.15524 26.7952 3.32903 27.3333 3.61168C27.8715 3.89432 28.3487 4.28029 28.7376 4.7475L39.0146 17.0812C39.7651 18.027 40.116 19.2289 39.9922 20.43C39.8685 21.631 39.28 22.7361 38.3524 23.5091C37.4248 24.2821 36.2317 24.6617 35.028 24.5668C33.8243 24.4719 32.7055 23.9101 31.9104 23.0013L21.6303 10.6677C20.8456 9.72544 20.4672 8.51017 20.5782 7.28901C20.6892 6.06785 21.2775 4.94075 22.2193 4.15549Z" fill="#7C7C7C"/>
<path fill-rule="evenodd" clip-rule="evenodd" d="M22.2189 35.927C21.2771 35.1417 20.6857 34.0146 20.5747 32.7934C20.4637 31.5723 20.8422 30.357 21.6269 29.4148L31.907 17.0811C32.2903 16.598 32.7664 16.1964 33.3072 15.9C33.8481 15.6036 34.4427 15.4184 35.0562 15.3552C35.6696 15.292 36.2896 15.3521 36.8795 15.532C37.4693 15.7119 38.0173 16.008 38.4911 16.4028C38.9649 16.7976 39.3549 17.2832 39.6382 17.831C39.9216 18.3788 40.0925 18.9777 40.141 19.5925C40.1894 20.2073 40.1144 20.8256 39.9204 21.411C39.7264 21.9964 39.4173 22.5371 39.0112 23.0013L28.7342 35.3349C28.3453 35.8017 27.8683 36.1873 27.3304 36.4697C26.7925 36.752 26.2042 36.9257 25.5992 36.9807C24.9941 37.0356 24.3842 36.9709 23.8042 36.7901C23.2242 36.6093 22.6855 36.316 22.2189 35.927Z" fill="#7C7C7C"/>
<path fill-rule="evenodd" clip-rule="evenodd" d="M33.9175 20.0413C33.9175 21.2679 33.4302 22.4443 32.5628 23.3117C31.6954 24.1791 30.519 24.6664 29.2924 24.6664L4.62504 24.6664C3.39838 24.6664 2.22197 24.1791 1.35459 23.3117C0.487209 22.4443 -8.01086e-05 21.2679 -8.01086e-05 20.0413C-8.01086e-05 18.8146 0.487209 17.6382 1.35459 16.7708C2.22197 15.9034 3.39838 15.4161 4.62504 15.4161L29.2924 15.4161C30.519 15.4161 31.6954 15.9034 32.5628 16.7708C33.4302 17.6382 33.9175 18.8146 33.9175 20.0413Z" fill="#7C7C7C"/>
</g>
<path fill-rule="evenodd" clip-rule="evenodd" d="M25.7368 0.357055C26.0509 0.0954814 26.456 -0.0306691 26.863 0.00633579C27.2701 0.0433407 27.6458 0.240471 27.9075 0.554393L38.1846 12.8881C38.3199 13.0428 38.423 13.223 38.4876 13.4181C38.5523 13.6133 38.5773 13.8194 38.5612 14.0243C38.545 14.2293 38.488 14.4289 38.3936 14.6115C38.2991 14.7941 38.1691 14.9559 38.0112 15.0875C37.8533 15.2191 37.6706 15.3178 37.474 15.3778C37.2773 15.4378 37.0707 15.4578 36.8662 15.4368C36.6617 15.4157 36.4635 15.3539 36.2832 15.2551C36.103 15.1563 35.9443 15.0225 35.8165 14.8614L25.5395 2.52778C25.2779 2.21371 25.1517 1.80862 25.1888 1.40156C25.2258 0.994509 25.4229 0.61881 25.7368 0.357055Z" fill="#4E94D0"/>
<path fill-rule="evenodd" clip-rule="evenodd" d="M25.7368 27.3925C25.4229 27.1308 25.2258 26.7551 25.1888 26.348C25.1517 25.9409 25.2779 25.5359 25.5395 25.2218L35.8165 12.8881C35.9443 12.7271 36.103 12.5932 36.2832 12.4944C36.4635 12.3956 36.6617 12.3339 36.8662 12.3128C37.0707 12.2917 37.2773 12.3118 37.474 12.3718C37.6706 12.4317 37.8533 12.5304 38.0112 12.662C38.1691 12.7936 38.2991 12.9555 38.3936 13.1381C38.488 13.3207 38.545 13.5203 38.5612 13.7253C38.5773 13.9302 38.5523 14.1363 38.4876 14.3314C38.423 14.5266 38.3199 14.7068 38.1846 14.8615L27.9075 27.1952C27.6458 27.5091 27.2701 27.7062 26.863 27.7432C26.456 27.7802 26.0509 27.6541 25.7368 27.3925Z" fill="#4E94D0"/>
<path fill-rule="evenodd" clip-rule="evenodd" d="M37.001 13.8746C37.001 14.2835 36.8385 14.6756 36.5494 14.9647C36.2603 15.2539 35.8682 15.4163 35.4593 15.4163L6.16683 15.4163C5.75794 15.4163 5.3658 15.2539 5.07667 14.9647C4.78755 14.6756 4.62512 14.2835 4.62512 13.8746C4.62512 13.4657 4.78755 13.0736 5.07667 12.7844C5.3658 12.4953 5.75794 12.3329 6.16683 12.3329L35.4593 12.3329C35.8682 12.3329 36.2603 12.4953 36.5494 12.7844C36.8385 13.0736 37.001 13.4657 37.001 13.8746Z" fill="#4E94D0"/>
</svg>
